<svg width="99" height="78" viewBox="0 0 99 78" fill="#E6F4F2" xmlns="http://www.w3.org/2000/svg">
<path d="M6.45 70.34C2.15 65.66 0 59.41 0 51.57C0 34 5.73 20.25 17.19 10.31C22.16 5.73 27.89 2.29 34.38 0L37.25 7.16C33.24 8.5 29.23 10.7 25.22 13.75C16.81 20.05 11.75 28.36 10.03 38.68L13.75 36.67C16.8 35.14 19.86 34.38 22.92 34.38C28.65 34.38 33.67 36.53 37.96 40.83C42.25 45.13 44.41 50.14 44.41 55.87C44.41 61.6 42.26 66.62 37.96 70.91C33.66 75.2 28.65 77.36 22.92 77.36C16.23 77.36 10.75 75.02 6.45 70.34ZM60.89 70.34C56.59 65.66 54.44 59.41 54.44 51.57C54.44 34 60.17 20.24 71.63 10.31C76.4 5.73 82.13 2.29 88.82 0L91.69 7.16C87.68 8.5 83.67 10.7 79.66 13.75C71.25 20.05 66.19 28.36 64.47 38.68L68.2 36.67C71.25 35.14 74.31 34.38 77.37 34.38C83.1 34.38 88.11 36.53 92.41 40.83C96.71 45.13 98.86 50.14 98.86 55.87C98.86 61.6 96.7 66.62 92.4 70.92C88.1 75.22 83.09 77.37 77.36 77.37C70.67 77.36 65.18 75.02 60.89 70.34Z" fill="#04967C"/>
</svg>
